<svg width="48" height="48" viewBox="0 0 48 48" fill="none" xmlns="http://www.w3.org/2000/svg">
<path d="M0.5 10C0.5 4.75329 4.75329 0.5 10 0.5H47.5V47.5H10C4.75329 47.5 0.5 43.2467 0.5 38V10Z" fill="white" stroke="#DCE2E6"/>
<path d="M24 32H33" stroke="#617480" stroke-width="2" stroke-linecap="round" stroke-linejoin="round"/>
<path d="M28.5 15.5C28.8978 15.1022 29.4374 14.8787 30 14.8787C30.2786 14.8787 30.5544 14.9335 30.8118 15.0401C31.0692 15.1467 31.303 15.303 31.5 15.5C31.697 15.697 31.8532 15.9308 31.9598 16.1882C32.0664 16.4456 32.1213 16.7214 32.1213 17C32.1213 17.2786 32.0664 17.5544 31.9598 17.8118C31.8532 18.0691 31.697 18.303 31.5 18.5L19 31L15 32L16 28L28.5 15.5Z" stroke="#617480" stroke-width="2" stroke-linecap="round" stroke-linejoin="round"/>
</svg>
