<svg width="40" height="40" viewBox="0 0 40 40" fill="none" xmlns="http://www.w3.org/2000/svg">
<path d="M5 10H8.33333H35" stroke="white" stroke-width="2" stroke-linecap="round" stroke-linejoin="round"/>
<path d="M13.333 10V6.66671C13.333 5.78265 13.6842 4.93481 14.3093 4.30968C14.9344 3.68456 15.7823 3.33337 16.6663 3.33337H23.333C24.2171 3.33337 25.0649 3.68456 25.69 4.30968C26.3152 4.93481 26.6663 5.78265 26.6663 6.66671V10M31.6663 10V33.3334C31.6663 34.2174 31.3152 35.0653 30.69 35.6904C30.0649 36.3155 29.2171 36.6667 28.333 36.6667H11.6663C10.7823 36.6667 9.93444 36.3155 9.30932 35.6904C8.6842 35.0653 8.33301 34.2174 8.33301 33.3334V10H31.6663Z" stroke="white" stroke-width="3" stroke-linecap="round" stroke-linejoin="round"/>
</svg>
